#!OML:ASF F:\VICON\USERDATA\INSTALL\rory3\rory3.ASF
:FULLY-SPECIFIED
:DEGREES
507
root 8.58414 17.6638 8.72963 -1.99252 0.488961 3.84106
lowerback 11.5478 2.87564 0.443698
upperback 1.3172 3.87874 0.122168
thorax -5.06432 1.90298 -0.729439
lowerneck -16.7998 2.68081 -8.34919
upperneck 42.4109 6.34224 3.31434
head 18.4225 1.72422 4.35476
rclavicle 2.70844e-014 -7.95139e-015
rhumerus -34.8303 -17.6269 -68.903
rradius 32.5012
rwrist 6.73487
rhand -17.5947 8.87011
rfingers 7.12502
rthumb 8.66143 -20.9322
lclavicle 2.70844e-014 -7.95139e-015
lhumerus -37.5441 21.4426 74.5495
lradius 29.1317
lwrist -7.45346
lhand -22.9542 24.3464
lfingers 7.12502
lthumb 3.48733 54.2977
rfemur -1.71468 8.32114 4.93045
rtibia 25.7664
rfoot -16.045 -4.76617
rtoes -17.0723
lfemur -0.710643 -10.4022 -4.19981
ltibia 15.7365
lfoot 5.61643 2.10381
ltoes -28.5882
508
root 8.73402 17.6377 8.7508 -1.9729 0.374121 3.88288
lowerback 11.4945 2.88971 0.474022
upperback 1.24943 3.90559 0.195382
thorax -5.10874 1.91576 -0.673724
lowerneck -16.8044 2.66198 -8.3889
upperneck 42.4669 6.29933 3.38419
head 18.4553 1.70763 4.39124
rclavicle -9.39258e-015 1.27222e-014
rhumerus -34.9014 -17.6038 -68.4998
rradius 32.4937
rwrist 6.80462
rhand -17.3782 8.85432
rfingers 7.12502
rthumb 8.87043 -20.9392
lclavicle -9.39258e-015 1.27222e-014
lhumerus -37.6784 21.4067 74.6089
lradius 29.2101
lwrist -8.37432
lhand -21.9059 24.4284
lfingers 7.12502
lthumb 4.49966 54.3606
rfemur -1.65158 8.7334 4.45506
rtibia 25.7264
rfoot -15.6166 -5.23517
rtoes -16.6363
lfemur -0.539173 -9.832 -4.65615
ltibia 15.8052
lfoot 4.32169 2.27808
ltoes -30.2775
509
root 8.8887 17.6197 8.76826 -2.00902 0.236899 3.87295
lowerback 11.625 2.91772 0.64251
upperback 1.14267 3.96907 0.251291
thorax -5.2854 1.94175 -0.730623
lowerneck -16.7263 2.64234 -8.35086
upperneck 42.4786 6.25193 3.36639
head 18.4485 1.69362 4.36518
rclavicle -2.35063e-014 1.59028e-014
rhumerus -35.0611 -17.6142 -68.1119
rradius 32.4837
rwrist 6.59029
rhand -17.3519 9.73301
rfingers 7.12502
rthumb 8.89577 -20.0595
lclavicle -2.35063e-014 1.59028e-014
lhumerus -37.7929 21.1183 74.8121
lradius 29.3095
lwrist -8.79081
lhand -21.5605 24.6273
lfingers 7.12502
lthumb 4.83313 54.5521
rfemur -1.59897 9.0487 4.0232
rtibia 25.6797
rfoot -15.2861 -5.5779
rtoes -16.4754
lfemur -0.342519 -9.39452 -5.10678
ltibia 15.9347
lfoot 3.04411 2.45276
ltoes -30.3701
510
root 9.04456 17.6065 8.78815 -2.0086 0.0543349 3.82401
lowerback 11.6167 2.91763 0.785506
upperback 1.07905 3.99375 0.354173
thorax -5.3451 1.95095 -0.708894
lowerneck -16.6586 2.66915 -8.35582
upperneck 42.4467 6.30102 3.32281
head 18.4088 1.70966 4.34878
rclavicle -3.94588e-014 -1.66979e-014
rhumerus -35.1008 -17.4423 -67.8432
rradius 32.5114
rwrist 6.25638
rhand -17.3881 10.553
rfingers 7.12502
rthumb 8.86089 -19.241
lclavicle -3.94588e-014 -1.66979e-014
lhumerus -37.7697 20.7162 75.2606
lradius 29.3715
lwrist -8.32539
lhand -22.0199 25.6238
lfingers 7.12502
lthumb 4.38958 55.5583
rfemur -1.59065 9.20559 3.62115
rtibia 25.6501
rfoot -14.9602 -5.82707
rtoes -16.7087
lfemur -0.167423 -8.7488 -5.52007
ltibia 16.0833
lfoot 1.87325 2.50932
ltoes -30.8166
511
root 9.20113 17.5909 8.81007 -2.01509 -0.158021 3.80483
lowerback 11.5535 2.94078 0.891096
upperback 1.0615 4.04285 0.447961
thorax -5.32737 1.97392 -0.67483
lowerneck -16.6941 2.67218 -8.41466
upperneck 42.4222 6.31876 3.34162
head 18.3983 1.71095 4.37094
rclavicle 2.43511e-014 3.97569e-015
rhumerus -35.1082 -17.5035 -67.4765
rradius 32.5932
rwrist 6.3935
rhand -17.2194 10.1163
rfingers 7.12502
rthumb 9.02362 -19.6707
lclavicle 2.43511e-014 3.97569e-015
lhumerus -37.7295 20.254 75.7701
lradius 29.3717
lwrist -7.7064
lhand -22.6749 25.042
lfingers 7.12502
lthumb 3.75704 54.9887
rfemur -1.57535 9.34211 3.19992
rtibia 25.6256
rfoot -14.4814 -6.2129
rtoes -17.7879
lfemur -0.00788774 -7.87126 -5.9554
ltibia 16.2705
lfoot 0.779525 2.54644
ltoes -31.3998
512
root 9.35998 17.577 8.8313 -2.02648 -0.261822 4.06442
lowerback 11.512 2.94835 0.747262
upperback 1.0413 4.03524 0.462286
thorax -5.33664 1.97346 -0.576867
lowerneck -16.7648 2.63556 -8.51872
upperneck 42.4444 6.29027 3.3814
head 18.4277 1.68557 4.40761
rclavicle 8.74653e-015 4.77083e-015
rhumerus -35.1058 -17.7041 -67.0403
rradius 32.6962
rwrist 7.07374
rhand -16.9195 9.21282
rfingers 7.12502
rthumb 9.31305 -20.5615
lclavicle 8.74653e-015 4.77083e-015
lhumerus -37.6655 19.6993 76.3265
lradius 29.3881
lwrist -6.97186
lhand -23.0713 23.5899
lfingers 7.12502
lthumb 3.37428 53.5429
rfemur -1.51372 9.35786 2.45164
rtibia 25.6431
rfoot -14.073 -6.52132
rtoes -17.5901
lfemur 0.0860427 -7.14053 -6.74306
ltibia 16.4904
lfoot -0.264222 2.59845
ltoes -32.0538
513
root 9.52013 17.5676 8.85205 -2.07501 -0.347994 4.30032
lowerback 11.447 2.94276 0.646256
upperback 1.06756 4.01538 0.48523
thorax -5.28172 1.9669 -0.488929
lowerneck -16.7097 2.62545 -8.49791
upperneck 42.3395 6.3076 3.24477
head 18.3588 1.68325 4.33278
rclavicle 1.1281e-014 8.74653e-015
rhumerus -35.0545 -17.7408 -66.6871
rradius 32.7704
rwrist 7.40667
rhand -16.5273 8.88497
rfingers 7.12502
rthumb 9.69143 -20.8721
lclavicle 1.1281e-014 8.74653e-015
lhumerus -37.5114 19.2304 76.8301
lradius 29.3803
lwrist -6.8792
lhand -22.2038 23.3314
lfingers 7.12502
lthumb 4.21197 53.2695
rfemur -1.43924 9.32558 1.73801
rtibia 25.7253
rfoot -13.7333 -6.72291
rtoes -16.0991
lfemur 0.228734 -6.51461 -7.53366
ltibia 16.6662
lfoot -1.28989 2.57335
ltoes -31.2194
